:SAMPLES-PER-SECOND 30
:FULLY-SPECIFIED
:DEGREES
269
root  7.555022202 34.02777845 0.3320866682 -162.3430176 -75.94319916 152.03302
lowerback  10.77130032 3.315939903 -0.7179120183
upperback  7.806640148 3.901530027 3.268110037
thorax  1.841089964 1.675310016 3.435420036
lowerneck  4.617589951 4.862279892 -0.1086990014
upperneck  20.45800018 4.201230049 9.286600113
head  5.169630051 2.244210005 3.029690027
lclavicle  0 -9.442270133e-015 7.951389973e-016
lhumerus  11.15100002 -4.434400082 89.32450104
lradius  2.320112779e-031 -2.66193928e-031 131.0749969
lwrist  -1.412450015e-030 1.765562519e-031 44.92499924
lhand  -1.496451383e-031 -27.76390076 20.11240005
lfingers  90 7.125020027 -90
lthumb  89.89689403 5.08795885 91.16245106
rclavicle  0 -9.442270133e-015 7.951389973e-016
rhumerus  27.55069923 28.73810005 -85.6088028
rradius  -8.180912381e-032 3.435050329e-031 103.3960037
rwrist  3.531125038e-031 3.531125038e-031 -72.81950378
rhand  -7.920061211e-032 -33.2840004 9.303460121
rfingers  -90 -7.125020027 -90
rthumb  -92.93752616 -24.25625642 -97.11982154
rfemur  -8.080920219 7.401420116 -3.815769911
rtibia  -0 0 67.01959991
rfoot  -0 -40.56060028 -17.15629959
rtoes  5.373923086 19.29304026 -105.8922705
lfemur  -25.9904995 4.867050171 -1.623319983
ltibia  -0 0 64.90309906
lfoot  4.607278953e-032 -16.65880013 -2.885900021
ltoes  -4.250644065 -19.5611806 -102.515957
270
root  7.605799728 34.08755505 0.3100444482 -161.401001 -76.03890228 151.2130127
lowerback  10.87609959 3.240430117 -0.7985029817
upperback  7.774179935 3.803590059 2.914750099
thorax  1.773790002 1.634860039 3.115770102
lowerneck  4.438139915 4.898220062 0.3254089952
upperneck  19.42639923 4.481029987 8.741580009
head  4.89605999 2.387949944 2.772310019
lclavicle  0 -9.442270133e-015 7.951389973e-016
lhumerus  10.67940044 -4.59968996 89.14389801
lradius  2.346295722e-031 -2.638889998e-031 131.6410065
lwrist  -7.062250077e-031 7.062250077e-031 45.11240005
lhand  -1.496451383e-031 -27.76390076 20.11240005
lfingers  90 7.125020027 -90
lthumb  89.89689403 5.08795885 91.16245106
rclavicle  0 -9.442270133e-015 7.951389973e-016
rhumerus  26.26889992 28.89590073 -85.88749695
rradius  -8.453433956e-032 3.428445505e-031 103.8509979
rwrist  7.062250077e-031 7.062250077e-031 -71.91130066
rhand  -7.920061211e-032 -33.2840004 9.303460121
rfingers  -90 -7.125020027 -90
rthumb  -92.93752616 -24.25625642 -97.11982154
rfemur  -8.244509697 7.284070015 -3.904659986
rtibia  -0 0 66.91940308
rfoot  -0 -40.52539825 -16.87680054
rtoes  5.373923086 19.29304026 -105.8922705
lfemur  -26.13969994 4.447500229 -1.91087997
ltibia  -0 0 64.6710968
lfoot  4.601672415e-032 -16.4239006 -2.618520021
ltoes  -4.250644065 -19.5611806 -102.515957
271
root  7.64817741 34.16666647 0.2978688854 -160.3900146 -76.10939789 150.3300171
lowerback  10.92660046 3.225519896 -0.7505279779
upperback  7.724110126 3.799649954 2.468980074
thorax  1.725550056 1.649749994 2.622020006
lowerneck  4.239280224 4.906129837 0.923206985
upperneck  18.48929977 4.669010162 8.351090431
head  4.663380146 2.503249884 2.539910078
lclavicle  0 -9.442270133e-015 7.951389973e-016
lhumerus  10.43859959 -4.809309959 88.94779968
lradius  2.361226384e-031 -2.625538802e-031 131.9660034
lwrist  -7.062250077e-031 1.765562519e-031 45.06539917
lhand  -1.496451383e-031 -27.76390076 20.11240005
lfingers  90 7.125020027 -90
lthumb  89.89689403 5.08795885 91.16245106
rclavicle  0 -9.442270133e-015 7.951389973e-016
rhumerus  24.9545002 28.7989006 -86.34739685
rradius  -8.629243856e-032 3.424062725e-031 104.1449966
rwrist  3.531125038e-031 7.062250077e-031 -71.08010101
rhand  -7.920061211e-032 -33.2840004 9.303460121
rfingers  -90 -7.125020027 -90
rthumb  -92.93752616 -24.25625642 -97.11982154
rfemur  -8.379810333 7.216730118 -4.077610016
rtibia  -0 0 66.78630066
rfoot  -0 -40.23889923 -16.28170013
rtoes  5.373923086 19.29304026 -105.8922705
lfemur  -26.20030022 3.951740026 -2.238059998
ltibia  -0 0 64.27580261
lfoot  6.898159344e-032 -16.30089951 -1.997320056
ltoes  -4.250644065 -19.5611806 -102.515957
272
root  7.673333386 34.28577814 0.3051800052 -159.8920288 -76.22180176 149.9639893
lowerback  11.00440025 3.157890081 -0.4137679935
upperback  7.601270199 3.752779961 2.038130045
thorax  1.605559945 1.654940009 1.984310031
lowerneck  4.195010185 5.009610176 1.341709971
upperneck  17.65719986 4.941359997 8.137969971
head  4.42553997 2.649780035 2.393929958
lclavicle  0 -9.442270133e-015 7.951389973e-016
lhumerus  10.1243 -4.950290203 88.77649689
lradius  2.370833215e-031 -2.616867193e-031 132.1759949
lwrist  -7.062250077e-031 3.531125038e-031 44.75790024
lhand  -1.496451383e-031 -27.76390076 20.11240005
lfingers  90 7.125020027 -90
lthumb  89.89689403 5.08795885 91.16245106
rclavicle  0 -9.442270133e-015 7.951389973e-016
rhumerus  23.54490089 28.75799942 -86.91770172
rradius  -8.767223325e-032 3.420555801e-031 104.3759995
rwrist  0 7.062250077e-031 -70.48269653
rhand  -7.920061211e-032 -33.2840004 9.303460121
rfingers  -90 -7.125020027 -90
rthumb  -92.93752616 -24.25625642 -97.11982154
rfemur  -8.444350243 7.084799767 -4.129209995
rtibia  -0 0 66.51100159
rfoot  -0 -39.44509888 -16.31060028
rtoes  5.373923086 19.29304026 -105.8922705
lfemur  -26.15780067 3.37526989 -2.449609995
ltibia  -0 0 63.74779892
lfoot  4.592951408e-032 -16.05069923 -1.273820043
ltoes  -4.250644065 -19.5611806 -102.515957
